<?xml version="1.0" encoding="UTF-8" standalone="no"?>
<!-- Generated by IcoMoon.io -->

<svg
   xmlns:dc="http://purl.org/dc/elements/1.1/"
   xmlns:cc="http://creativecommons.org/ns#"
   xmlns:rdf="http://www.w3.org/1999/02/22-rdf-syntax-ns#"
   xmlns:svg="http://www.w3.org/2000/svg"
   xmlns="http://www.w3.org/2000/svg"
   xmlns:sodipodi="http://sodipodi.sourceforge.net/DTD/sodipodi-0.dtd"
   xmlns:inkscape="http://www.inkscape.org/namespaces/inkscape"
   version="1.1"
   width="24"
   height="24"
   viewBox="0 0 24 24"
   id="svg6"
   sodipodi:docname="src.svg"
   inkscape:version="0.92.2 2405546, 2018-03-11">
  <metadata
     id="metadata12">
    <rdf:RDF>
      <cc:Work
         rdf:about="">
        <dc:format>image/svg+xml</dc:format>
        <dc:type
           rdf:resource="http://purl.org/dc/dcmitype/StillImage" />
        <dc:title>headset_mic</dc:title>
      </cc:Work>
    </rdf:RDF>
  </metadata>
  <defs
     id="defs10" />
  <sodipodi:namedview
     pagecolor="#ffffff"
     bordercolor="#666666"
     borderopacity="1"
     objecttolerance="10"
     gridtolerance="10"
     guidetolerance="10"
     inkscape:pageopacity="0"
     inkscape:pageshadow="2"
     inkscape:window-width="1920"
     inkscape:window-height="1051"
     id="namedview8"
     showgrid="false"
     inkscape:zoom="4.9166667"
     inkscape:cx="-53.184949"
     inkscape:cy="22.885086"
     inkscape:window-x="1920"
     inkscape:window-y="0"
     inkscape:window-maximized="1"
     inkscape:current-layer="svg6"
     inkscape:pagecheckerboard="true" />
  <title
     id="title2">headset_mic</title>
  <ellipse
     id="path3717"
     cx="-122.63041"
     cy="-11.619106"
     style="fill:#00b8ef;fill-opacity:1;stroke-width:0.86311388"
     rx="13.999999"
     ry="14"
     inkscape:export-xdpi="445.85849"
     inkscape:export-ydpi="445.85849"
     inkscape:export-filename="/home/jeroen/projects/ca11/src/brand/ca11/img/logo-128.png" />
  <path
     d="m -122.57875,-21.40637 c 4.47801,0 8.1107,3.554007 8.1107,7.935018 v 8.8440198 c 0,1.4468181 -1.22471,2.6450052 -2.70356,2.6450052 h -5.40714 v -1.7774438 h 6.29391 v -0.8675614 h -3.59034 v -7.0674568 h 3.59034 v -1.777445 c 0,-3.430572 -2.78828,-6.157574 -6.29391,-6.157574 -3.50562,0 -6.2939,2.727883 -6.2939,6.157574 v 1.777445 h 3.59034 v 7.0674568 h -2.70357 c -1.47885,0 -2.70357,-1.1981881 -2.70357,-2.6450061 v -6.1990137 c 0,-4.381011 3.63269,-7.935018 8.1107,-7.935018 z"
     id="path4"
     style="fill:#ffffff;fill-opacity:1;stroke-width:0.89137536"
     inkscape:export-xdpi="445.85849"
     inkscape:export-ydpi="445.85849"
     inkscape:export-filename="/home/jeroen/projects/ca11/src/brand/ca11/img/logo-128.png"
     inkscape:connector-curvature="0" />
  <g
     id="g6736"
     inkscape:export-filename="/home/jeroen/projects/ca11/src/brand/ca11/img/menubar-active.png"
     inkscape:export-xdpi="75"
     inkscape:export-ydpi="75">
    <ellipse
       inkscape:export-filename="/home/jeroen/projects/ca11/src/brand/ca11/img/logo-128.png"
       inkscape:export-ydpi="445.85849"
       inkscape:export-xdpi="445.85849"
       ry="14"
       rx="13.999999"
       style="fill:#28ca42;fill-opacity:1;stroke-width:0.86311388"
       cy="-13.274137"
       cx="-56.898262"
       id="path3717-6" />
    <path
       inkscape:connector-curvature="0"
       inkscape:export-filename="/home/jeroen/projects/ca11/src/brand/ca11/img/logo-128.png"
       inkscape:export-ydpi="445.85849"
       inkscape:export-xdpi="445.85849"
       style="fill:#ffffff;fill-opacity:1;stroke-width:0.89137536"
       id="path4-7"
       d="m -56.846601,-23.0614 c 4.478008,0 8.110701,3.554006 8.110701,7.935018 v 8.8440199 c 0,1.446818 -1.224716,2.645005 -2.703567,2.645005 h -5.407134 v -1.777444 h 6.293904 v -0.867561 h -3.590337 v -7.0674569 h 3.590337 v -1.777445 c 0,-3.430572 -2.788279,-6.157574 -6.293904,-6.157574 -3.505625,0 -6.293903,2.727883 -6.293903,6.157574 v 1.777445 h 3.590336 v 7.0674569 h -2.703567 c -1.478851,0 -2.703566,-1.198188 -2.703566,-2.645006 v -6.1990139 c 0,-4.381012 3.632692,-7.935018 8.1107,-7.935018 z" />
  </g>
  <g
     id="g6728">
    <ellipse
       inkscape:export-filename="/home/jeroen/projects/ca11/src/brand/ca11/img/logo-128.png"
       inkscape:export-ydpi="445.85849"
       inkscape:export-xdpi="445.85849"
       ry="14"
       rx="13.999999"
       style="fill:#da534f;fill-opacity:1;stroke-width:0.86311388"
       cy="-13.275588"
       cx="8.0725145"
       id="path3717-6-5" />
    <path
       inkscape:connector-curvature="0"
       inkscape:export-filename="/home/jeroen/projects/ca11/src/brand/ca11/img/logo-128.png"
       inkscape:export-ydpi="445.85849"
       inkscape:export-xdpi="445.85849"
       style="fill:#ffffff;fill-opacity:1;stroke-width:0.89137536"
       id="path4-7-3"
       d="m 8.1241744,-23.062852 c 4.4780076,0 8.1107006,3.554006 8.1107006,7.935017 v 8.8440198 c 0,1.446818 -1.224716,2.645005 -2.703567,2.645005 H 8.1241744 v -1.777444 h 6.2939036 v -0.867561 h -3.590337 v -7.0674568 h 3.590337 v -1.777445 c 0,-3.430571 -2.788279,-6.157573 -6.2939036,-6.157573 -3.505625,0 -6.2939021,2.727883 -6.2939021,6.157573 v 1.777445 h 3.5903351 v 7.0674568 H 2.7170408 c -1.4788515,0 -2.70356651,-1.198188 -2.70356651,-2.645006 v -6.1990138 c 0,-4.381011 3.63269251,-7.935017 8.11070011,-7.935017 z" />
  </g>
  <g
     id="g6732"
     inkscape:export-filename="/home/jeroen/projects/ca11/src/brand/ca11/img/menubar-dnd.png"
     inkscape:export-xdpi="75"
     inkscape:export-ydpi="75">
    <ellipse
       inkscape:export-filename="/home/jeroen/projects/ca11/src/brand/ca11/img/logo-128.png"
       inkscape:export-ydpi="445.85849"
       inkscape:export-xdpi="445.85849"
       ry="14"
       rx="13.999999"
       style="fill:#f9864f;fill-opacity:1;stroke-width:0.86311388"
       cy="-12.817493"
       cx="-24.449116"
       id="path3717-6-5-5" />
    <path
       inkscape:connector-curvature="0"
       inkscape:export-filename="/home/jeroen/projects/ca11/src/brand/ca11/img/logo-128.png"
       inkscape:export-ydpi="445.85849"
       inkscape:export-xdpi="445.85849"
       style="fill:#ffffff;fill-opacity:1;stroke-width:0.89137536"
       id="path4-7-3-6"
       d="m -24.397456,-22.604756 c 4.478008,0 8.110701,3.554006 8.110701,7.935017 v 8.8440197 c 0,1.446818 -1.224716,2.645005 -2.703567,2.645005 h -5.407134 v -1.777444 h 6.293904 v -0.867561 h -3.590337 v -7.0674567 h 3.590337 v -1.777445 c 0,-3.430571 -2.788279,-6.157573 -6.293904,-6.157573 -3.505625,0 -6.293902,2.727883 -6.293902,6.157573 v 1.777445 h 3.590335 v 7.0674567 h -2.703567 c -1.478851,0 -2.703566,-1.198188 -2.703566,-2.645006 v -6.1990137 c 0,-4.381011 3.632692,-7.935017 8.1107,-7.935017 z" />
  </g>
  <g
     id="g6740"
     inkscape:export-filename="/home/jeroen/projects/ca11/src/brand/ca11/img/menubar-inactive.png"
     inkscape:export-xdpi="75"
     inkscape:export-ydpi="75">
    <ellipse
       inkscape:export-filename="/home/jeroen/projects/ca11/src/brand/ca11/img/logo-128.png"
       inkscape:export-ydpi="445.85849"
       inkscape:export-xdpi="445.85849"
       ry="14"
       rx="13.999999"
       style="fill:#787878;fill-opacity:1;stroke-width:0.86311388"
       cy="-12.529856"
       cx="-89.598824"
       id="path3717-9" />
    <path
       inkscape:connector-curvature="0"
       inkscape:export-filename="/home/jeroen/projects/ca11/src/brand/ca11/img/logo-128.png"
       inkscape:export-ydpi="445.85849"
       inkscape:export-xdpi="445.85849"
       style="fill:#ffffff;fill-opacity:1;stroke-width:0.89137536"
       id="path4-1"
       d="m -89.547161,-22.31712 c 4.47801,0 8.1107,3.554007 8.1107,7.935018 v 8.8440198 c 0,1.4468181 -1.22471,2.6450052 -2.70356,2.6450052 h -5.40714 v -1.7774438 h 6.29391 v -0.8675614 h -3.59034 v -7.0674568 h 3.59034 v -1.777445 c 0,-3.430572 -2.78828,-6.157574 -6.29391,-6.157574 -3.50562,0 -6.2939,2.727883 -6.2939,6.157574 v 1.777445 h 3.59034 v 7.0674568 h -2.70357 c -1.47885,0 -2.70357,-1.1981881 -2.70357,-2.6450061 v -6.1990137 c 0,-4.381011 3.63269,-7.935018 8.1107,-7.935018 z" />
  </g>
  <g
     id="g6704"
     inkscape:export-filename="/home/jeroen/projects/ca11/src/brand/ca11/img/menubar-ringing-0.png"
     inkscape:export-xdpi="75"
     inkscape:export-ydpi="75">
    <ellipse
       inkscape:export-filename="/home/jeroen/projects/ca11/src/brand/ca11/img/logo-128.png"
       inkscape:export-ydpi="445.85849"
       inkscape:export-xdpi="445.85849"
       ry="14"
       rx="13.999999"
       style="fill:#da534f;fill-opacity:0;stroke-width:0.86311388"
       cy="22.705635"
       cx="-122.53321"
       id="path3717-6-5-0" />
    <path
       inkscape:connector-curvature="0"
       inkscape:export-filename="/home/jeroen/projects/ca11/src/brand/ca11/img/logo-128.png"
       inkscape:export-ydpi="445.85849"
       inkscape:export-xdpi="445.85849"
       style="fill:#ffffff;fill-opacity:1;stroke-width:0.89137536"
       id="path4-7-3-9"
       d="m -122.48156,12.918371 c 4.47801,0 8.1107,3.554006 8.1107,7.935018 v 8.84402 c 0,1.446818 -1.22471,2.645005 -2.70356,2.645005 h -5.40714 V 30.56497 h 6.29391 v -0.867561 h -3.59034 v -7.067457 h 3.59034 v -1.777445 c 0,-3.430572 -2.78828,-6.157574 -6.29391,-6.157574 -3.50562,0 -6.2939,2.727883 -6.2939,6.157574 v 1.777445 h 3.59034 v 7.067457 h -2.70357 c -1.47885,0 -2.70357,-1.198188 -2.70357,-2.645006 v -6.199014 c 0,-4.381012 3.6327,-7.935018 8.1107,-7.935018 z" />
  </g>
  <g
     id="g6708"
     inkscape:export-filename="/home/jeroen/projects/ca11/src/brand/ca11/img/menubar-ringing-1.png"
     inkscape:export-xdpi="75"
     inkscape:export-ydpi="75">
    <ellipse
       inkscape:export-filename="/home/jeroen/projects/ca11/src/brand/ca11/img/logo-128.png"
       inkscape:export-ydpi="445.85849"
       inkscape:export-xdpi="445.85849"
       ry="14"
       rx="13.999999"
       style="fill:#da534f;fill-opacity:0.2;stroke-width:0.86311388"
       cy="22.561815"
       cx="-89.167366"
       id="path3717-6-5-0-3" />
    <path
       inkscape:connector-curvature="0"
       inkscape:export-filename="/home/jeroen/projects/ca11/src/brand/ca11/img/logo-128.png"
       inkscape:export-ydpi="445.85849"
       inkscape:export-xdpi="445.85849"
       style="fill:#ffffff;fill-opacity:1;stroke-width:0.89137536"
       id="path4-7-3-9-6"
       d="m -89.115708,12.774552 c 4.478008,0 8.110701,3.554006 8.110701,7.935018 v 8.84402 c 0,1.446818 -1.224716,2.645005 -2.703567,2.645005 h -5.407134 v -1.777444 h 6.293904 V 29.55359 h -3.590337 v -7.067457 h 3.590337 v -1.777445 c 0,-3.430572 -2.788279,-6.157574 -6.293904,-6.157574 -3.505625,0 -6.293902,2.727883 -6.293902,6.157574 v 1.777445 h 3.590335 v 7.067457 h -2.703566 c -1.478852,0 -2.703567,-1.198188 -2.703567,-2.645006 V 20.70957 c 0,-4.381012 3.632693,-7.935018 8.1107,-7.935018 z" />
  </g>
  <g
     id="g6712"
     inkscape:export-filename="/home/jeroen/projects/ca11/src/brand/ca11/img/menubar-ringing-2.png"
     inkscape:export-xdpi="75"
     inkscape:export-ydpi="75">
    <ellipse
       inkscape:export-filename="/home/jeroen/projects/ca11/src/brand/ca11/img/logo-128.png"
       inkscape:export-ydpi="445.85849"
       inkscape:export-xdpi="445.85849"
       ry="14"
       rx="13.999999"
       style="fill:#da534f;fill-opacity:0.40000001;stroke-width:0.86311388"
       cy="22.417999"
       cx="-54.507145"
       id="path3717-6-5-0-0" />
    <path
       inkscape:connector-curvature="0"
       inkscape:export-filename="/home/jeroen/projects/ca11/src/brand/ca11/img/logo-128.png"
       inkscape:export-ydpi="445.85849"
       inkscape:export-xdpi="445.85849"
       style="fill:#ffffff;fill-opacity:1;stroke-width:0.89137536"
       id="path4-7-3-9-62"
       d="m -54.455491,12.630733 c 4.478008,0 8.110701,3.554006 8.110701,7.935018 v 8.84402 c 0,1.446818 -1.224716,2.645005 -2.703567,2.645005 h -5.407134 v -1.777444 h 6.293904 v -0.867561 h -3.590337 v -7.067457 h 3.590337 v -1.777445 c 0,-3.430572 -2.788279,-6.157574 -6.293904,-6.157574 -3.505625,0 -6.293902,2.727883 -6.293902,6.157574 v 1.777445 h 3.590335 v 7.067457 h -2.703566 c -1.478852,0 -2.703567,-1.198188 -2.703567,-2.645006 v -6.199014 c 0,-4.381012 3.632693,-7.935018 8.1107,-7.935018 z" />
  </g>
  <g
     id="g6716"
     inkscape:export-filename="/home/jeroen/projects/ca11/src/brand/ca11/img/menubar-ringing-3.png"
     inkscape:export-xdpi="75"
     inkscape:export-ydpi="75">
    <ellipse
       inkscape:export-filename="/home/jeroen/projects/ca11/src/brand/ca11/img/logo-128.png"
       inkscape:export-ydpi="445.85849"
       inkscape:export-xdpi="445.85849"
       ry="14"
       rx="13.999999"
       style="fill:#da534f;fill-opacity:0.60000002;stroke-width:0.86311388"
       cy="22.849453"
       cx="-22.004206"
       id="path3717-6-5-0-6" />
    <path
       inkscape:connector-curvature="0"
       inkscape:export-filename="/home/jeroen/projects/ca11/src/brand/ca11/img/logo-128.png"
       inkscape:export-ydpi="445.85849"
       inkscape:export-xdpi="445.85849"
       style="fill:#ffffff;fill-opacity:1;stroke-width:0.89137536"
       id="path4-7-3-9-1"
       d="m -21.952548,13.062188 c 4.478008,0 8.110701,3.554006 8.110701,7.935019 v 8.84402 c 0,1.446818 -1.224716,2.645005 -2.703567,2.645005 h -5.407134 v -1.777444 h 6.293904 v -0.867561 h -3.590337 V 22.77377 h 3.590337 v -1.777445 c 0,-3.430573 -2.788279,-6.157575 -6.293904,-6.157575 -3.505625,0 -6.293903,2.727883 -6.293903,6.157575 v 1.777445 h 3.590336 v 7.067457 h -2.703567 c -1.478852,0 -2.703567,-1.198188 -2.703567,-2.645006 v -6.199014 c 0,-4.381013 3.632693,-7.935019 8.110701,-7.935019 z" />
  </g>
  <g
     id="g6720"
     inkscape:export-filename="/home/jeroen/projects/ca11/src/brand/ca11/img/menubar-ringing-4.png"
     inkscape:export-xdpi="75"
     inkscape:export-ydpi="75">
    <ellipse
       inkscape:export-filename="/home/jeroen/projects/ca11/src/brand/ca11/img/logo-128.png"
       inkscape:export-ydpi="445.85849"
       inkscape:export-xdpi="445.85849"
       ry="14"
       rx="13.999999"
       style="fill:#da534f;fill-opacity:0.80000001;stroke-width:0.86311388"
       cy="21.986542"
       cx="9.9234648"
       id="path3717-6-5-0-8" />
    <path
       inkscape:connector-curvature="0"
       inkscape:export-filename="/home/jeroen/projects/ca11/src/brand/ca11/img/logo-128.png"
       inkscape:export-ydpi="445.85849"
       inkscape:export-xdpi="445.85849"
       style="fill:#ffffff;fill-opacity:0.99607843;stroke-width:0.89137536"
       id="path4-7-3-9-7"
       d="m 9.9751206,12.199278 c 4.4780084,0 8.1107014,3.554006 8.1107014,7.935019 v 8.84402 c 0,1.446818 -1.224716,2.645005 -2.703567,2.645005 H 9.9751206 V 29.845878 H 16.269025 V 28.978317 H 12.678688 V 21.91086 h 3.590337 v -1.777445 c 0,-3.430573 -2.788279,-6.157575 -6.2939044,-6.157575 -3.5056245,0 -6.2939025,2.727883 -6.2939025,6.157575 v 1.777445 h 3.5903355 v 7.067457 H 4.5679871 c -1.478852,0 -2.703567,-1.198188 -2.703567,-2.645006 v -6.199014 c 0,-4.381013 3.632693,-7.935019 8.1107005,-7.935019 z" />
  </g>
  <g
     id="g6724"
     inkscape:export-filename="/home/jeroen/projects/ca11/src/brand/ca11/img/menubar-ringing-5.png"
     inkscape:export-xdpi="75"
     inkscape:export-ydpi="75">
    <ellipse
       inkscape:export-filename="/home/jeroen/projects/ca11/src/brand/ca11/img/logo-128.png"
       inkscape:export-ydpi="445.85849"
       inkscape:export-xdpi="445.85849"
       ry="14"
       rx="13.999999"
       style="fill:#da534f;fill-opacity:1;stroke-width:0.86311388"
       cy="21.932201"
       cx="43.728813"
       id="path3717-6-5-0-8-9" />
    <path
       inkscape:connector-curvature="0"
       inkscape:export-filename="/home/jeroen/projects/ca11/src/brand/ca11/img/logo-128.png"
       inkscape:export-ydpi="445.85849"
       inkscape:export-xdpi="445.85849"
       style="fill:#ffffff;fill-opacity:0.99607843;stroke-width:0.89137536"
       id="path4-7-3-9-7-2"
       d="m 43.78047,12.144939 c 4.478008,0 8.110701,3.554006 8.110701,7.935018 v 8.84402 c 0,1.446818 -1.224716,2.645005 -2.703567,2.645005 H 43.78047 v -1.777444 h 6.293904 V 28.923977 H 46.484037 V 21.85652 h 3.590337 v -1.777445 c 0,-3.430572 -2.788279,-6.157574 -6.293904,-6.157574 -3.505625,0 -6.293903,2.727883 -6.293903,6.157574 v 1.777445 h 3.590336 v 7.067457 h -2.703567 c -1.478852,0 -2.703567,-1.198188 -2.703567,-2.645006 v -6.199014 c 0,-4.381012 3.632693,-7.935018 8.110701,-7.935018 z" />
  </g>
  <rect
     style="fill:#00b8ef;fill-opacity:1;stroke-width:0.97759324"
     id="rect6776"
     width="30"
     height="30"
     x="-147.25424"
     y="-60.847454"
     inkscape:export-filename="/home/jeroen/projects/ca11/src/brand/ca11/img/notification.png"
     inkscape:export-xdpi="409.59995"
     inkscape:export-ydpi="409.59995" />
  <path
     d="m -132.15173,-55.346586 c 4.47801,0 8.1107,3.554007 8.1107,7.935018 v 8.84402 c 0,1.446818 -1.22471,2.645005 -2.70356,2.645005 h -5.40714 v -1.777444 h 6.29391 v -0.867561 h -3.59034 v -7.067457 h 3.59034 v -1.777445 c 0,-3.430572 -2.78828,-6.157574 -6.29391,-6.157574 -3.50562,0 -6.2939,2.727883 -6.2939,6.157574 v 1.777445 h 3.59034 v 7.067457 h -2.70357 c -1.47885,0 -2.70357,-1.198188 -2.70357,-2.645006 v -6.199014 c 0,-4.381011 3.63269,-7.935018 8.1107,-7.935018 z"
     id="path4-75"
     style="fill:#ffffff;fill-opacity:1;stroke-width:0.89137536"
     inkscape:export-xdpi="409.59995"
     inkscape:export-ydpi="409.59995"
     inkscape:export-filename="/home/jeroen/projects/ca11/src/brand/ca11/img/notification.png"
     inkscape:connector-curvature="0" />
</svg>
