<?xml version="1.0" encoding="UTF-8" standalone="no"?>
<!-- Generated by IcoMoon.io -->

<svg
   xmlns:dc="http://purl.org/dc/elements/1.1/"
   xmlns:cc="http://creativecommons.org/ns#"
   xmlns:rdf="http://www.w3.org/1999/02/22-rdf-syntax-ns#"
   xmlns:svg="http://www.w3.org/2000/svg"
   xmlns="http://www.w3.org/2000/svg"
   xmlns:sodipodi="http://sodipodi.sourceforge.net/DTD/sodipodi-0.dtd"
   xmlns:inkscape="http://www.inkscape.org/namespaces/inkscape"
   version="1.1"
   width="24"
   height="24"
   viewBox="0 0 24 24"
   id="svg5513"
   sodipodi:docname="sig11.svg"
   inkscape:version="0.92.2 2405546, 2018-03-11">
  <metadata
     id="metadata5519">
    <rdf:RDF>
      <cc:Work
         rdf:about="">
        <dc:format>image/svg+xml</dc:format>
        <dc:type
           rdf:resource="http://purl.org/dc/dcmitype/StillImage" />
        <dc:title>headset_mic</dc:title>
      </cc:Work>
    </rdf:RDF>
  </metadata>
  <defs
     id="defs5517" />
  <sodipodi:namedview
     pagecolor="#ffffff"
     bordercolor="#666666"
     borderopacity="1"
     objecttolerance="10"
     gridtolerance="10"
     guidetolerance="10"
     inkscape:pageopacity="0"
     inkscape:pageshadow="2"
     inkscape:window-width="1167"
     inkscape:window-height="789"
     id="namedview5515"
     showgrid="false"
     inkscape:pagecheckerboard="false"
     inkscape:zoom="13.906433"
     inkscape:cx="7.2666595"
     inkscape:cy="8.9710728"
     inkscape:window-x="2378"
     inkscape:window-y="189"
     inkscape:window-maximized="0"
     inkscape:current-layer="svg5513" />
  <title
     id="title5509">headset_mic</title>
  <path
     style="fill:#601111;fill-opacity:1;stroke:#601111;stroke-width:0;stroke-miterlimit:4;stroke-dasharray:none;stroke-opacity:1"
     d="M 12.065254,0.5718794 0.60067874,6.6824501 0.61809334,18.164435 12.102018,23.537789 23.566593,17.42722 23.547244,5.9432995 Z m -4.0730691,5.336591 h 8.1829011 c 1.359302,0 2.398406,0.2599982 3.121074,0.7797846 0.722666,0.5197863 1.085506,1.2586264 1.085506,2.213582 v 1.975581 c 0,0.942866 -0.370787,1.674438 -1.110661,2.19423 -0.712854,0.524653 -1.728099,0.788132 -3.043675,0.795265 l 1.836267,4.258823 c 0.09324,0.198966 -8.57e-4,0.297982 -0.280568,0.297982 h -2.236801 c -0.170934,0 -0.28807,-0.02014 -0.350226,-0.05805 -0.06216,-0.04737 -0.108238,-0.126235 -0.139316,-0.239934 L 14.402673,16.562295 H 9.8574766 L 9.205398,18.125734 c -0.031079,0.113699 -0.084839,0.192578 -0.1625357,0.239934 -0.062158,0.03789 -0.1716117,0.05805 -0.3270064,0.05805 H 6.4771196 c -0.2797106,0 -0.3718699,-0.09902 -0.2786327,-0.297982 l 1.8343319,-4.256888 h -0.040634 c -1.3420962,0 -2.383135,-0.265326 -3.1230082,-0.7972 C 4.14651,12.551856 3.7856051,11.820284 3.7856051,10.877418 V 8.901837 c 0,-0.9549556 0.3609049,-1.6937957 1.0835716,-2.213582 C 5.591844,6.1684686 6.6328828,5.9084704 7.9921849,5.9084704 Z M 8.1469808,8.212995 c -0.5506033,0 -0.9452347,0.076982 -1.186124,0.2341289 C 6.737174,8.616353 6.6241757,8.8889443 6.6241757,9.2636724 v 1.2325616 c 0,0.386821 0.1129983,0.6594 0.3366811,0.816546 0.2408893,0.169228 0.6355207,0.253478 1.186124,0.253478 h 0.878467 L 9.8806966,9.582939 C 9.9894728,9.3839733 10.22374,9.2849569 10.581148,9.2849569 h 3.099789 c 0.388487,0 0.620818,0.099016 0.698516,0.2979821 l 0.855249,1.983319 h 0.783653 c 0.550604,0 0.939223,-0.08425 1.162905,-0.253478 0.240889,-0.157146 0.359901,-0.429725 0.359901,-0.816546 V 9.2636724 c 0,-0.3747281 -0.119012,-0.6473194 -0.359901,-0.8165485 C 16.957578,8.2899776 16.568959,8.212995 16.018355,8.212995 Z m 3.9492332,2.792129 -1.679537,4.105961 h 3.450015 l -1.677601,-4.105961 z"
     id="path1381-7-6-3"
     inkscape:connector-curvature="0" />
</svg>
